<svg width="120" height="38" viewBox="0 0 120 38" fill="none" xmlns="http://www.w3.org/2000/svg">
<g clip-path="url(#clip0_719_74)">
<path d="M3.3457 29.7681C3.68764 30.2642 4.05199 30.7428 4.43873 31.2037C5.61937 30.9452 6.66929 30.2745 7.40024 29.312C7.93557 28.6374 8.27413 27.53 8.37912 26.1093C8.42892 25.4357 8.40439 22.3629 8.38294 19.6517C8.36397 17.2632 8.34749 15.2004 8.37854 14.6976C8.48162 13.0258 9.76455 11.7652 11.3627 11.7652H11.4286C13.0269 11.7652 14.3098 13.0258 14.4129 14.6977C14.4439 15.2008 14.4275 17.0335 14.4083 19.1554C14.3868 21.5575 14.3623 24.28 14.4121 24.9531C14.5097 26.2713 14.8298 27.2561 15.391 27.9633C15.8255 28.5147 16.3796 28.9601 17.0114 29.2659C17.6432 29.5717 18.3363 29.73 19.0383 29.7289H19.2892C19.9911 29.7301 20.6842 29.5719 21.316 29.2661C21.9479 28.9602 22.5019 28.5149 22.9364 27.9636C23.4975 27.2564 23.8178 26.2718 23.9153 24.9534C23.9647 24.2844 23.9406 22.562 23.9193 21.0424C23.9002 19.6677 23.8835 18.4805 23.9147 17.9734C24.0178 16.3016 25.3008 15.041 26.8989 15.041H26.9649C28.5631 15.041 29.846 16.3016 29.9491 17.9735C29.9803 18.4786 29.9636 19.9324 29.9445 21.6159C29.923 23.498 29.8987 25.6313 29.9483 26.3021C30.0458 27.6203 30.366 28.6051 30.9272 29.3123C31.6036 30.1949 32.5458 30.8367 33.6148 31.143C33.9888 30.6933 34.3419 30.2265 34.6741 29.7426C32.707 29.4556 31.6905 27.875 31.5568 26.3026C31.4962 25.5941 31.524 23.8463 31.5535 21.9959C31.5802 20.3236 31.6076 18.5942 31.5572 18.0476C31.4242 16.6035 31.0918 15.7009 30.4101 14.9323C29.9764 14.4383 29.4416 14.0432 28.8418 13.7738C28.2421 13.5044 27.5915 13.3671 26.9341 13.3711H26.9103C26.2529 13.3671 25.6022 13.5045 25.0025 13.7738C24.4027 14.0432 23.8679 14.4383 23.4341 14.9324C22.7526 15.7007 22.4202 16.6033 22.2872 18.0476C22.2368 18.5927 22.2642 20.0309 22.2906 21.4218C22.3201 22.9721 22.3481 24.4366 22.2875 25.1465C22.146 26.8069 20.8619 28.059 19.3005 28.059H19.0902C17.5284 28.059 16.2443 26.8069 16.1031 25.1465C16.0428 24.4398 16.0706 22.1725 16.0997 19.7719C16.1252 17.6852 16.1541 15.3202 16.1035 14.7717C15.9706 13.3278 15.6381 12.4252 14.9564 11.6567C14.5227 11.1626 13.9879 10.7675 13.3882 10.4981C12.7885 10.2287 12.1379 10.0914 11.4804 10.0954H11.2639C10.6065 10.0914 9.95583 10.2288 9.35608 10.4982C8.75633 10.7676 8.22148 11.1627 7.78775 11.6568C7.10625 12.4251 6.77382 13.3275 6.64078 14.7719C6.59001 15.3214 6.61893 17.994 6.6444 20.352C6.67372 23.0492 6.70133 25.597 6.64115 26.3025C6.50374 27.9223 5.43161 29.5545 3.3457 29.7681Z" fill="#6930C3"/>
<path d="M19.0011 4.05488e-10C16.5058 -1.63e-05 14.035 0.49142 11.7297 1.44625C9.4244 2.40108 7.32974 3.80061 5.56532 5.56492C3.80091 7.32923 2.4013 9.42378 1.4464 11.729C0.491504 14.0342 2.34362e-05 16.5048 2.0176e-05 19C-0.00475635 22.2703 0.838652 25.486 2.4479 28.3331C2.9651 28.2682 3.46385 28.0995 3.91414 27.8369C4.73668 27.4073 4.8923 26.4939 4.92112 26.156C4.974 25.5329 4.94431 22.7902 4.91824 20.3705C4.88376 17.1852 4.8667 15.2083 4.92149 14.6133C5.03991 13.329 5.31966 11.8373 6.49645 10.5109C7.09121 9.83311 7.82472 9.29106 8.64728 8.92149C9.46984 8.55191 10.3622 8.36345 11.264 8.36886H11.4692C12.3728 8.36223 13.2673 8.5501 14.0919 8.91971C14.9164 9.28932 15.6518 9.83202 16.2481 10.511C17.4249 11.8376 17.7046 13.3292 17.8231 14.6134C17.8777 15.2083 17.8608 16.967 17.8263 19.7928C17.8001 21.9414 17.7704 24.3767 17.8234 24.9999C17.8798 25.6621 18.3331 26.3324 19.0903 26.3324H19.2919C20.0577 26.3324 20.511 25.6621 20.5675 24.9999C20.6202 24.3794 20.592 22.8924 20.5646 21.4543C20.5359 19.9503 20.5089 18.5295 20.5679 17.889C20.6863 16.6046 20.966 15.1129 22.1428 13.7866C22.7376 13.1088 23.4711 12.5667 24.2937 12.1971C25.1162 11.8276 26.0086 11.6391 26.9104 11.6445H26.9341C27.8359 11.6391 28.7283 11.8276 29.5509 12.1972C30.3735 12.5667 31.1071 13.1088 31.7019 13.7866C32.8785 15.1132 33.1582 16.6048 33.2766 17.889C33.3355 18.5283 33.3084 20.226 33.2799 22.0233C33.2538 23.6689 33.2241 25.5342 33.277 26.1559C33.3089 26.536 33.429 26.9034 33.6278 27.2289L33.6357 27.2418C33.6502 27.2642 33.6651 27.2861 33.6807 27.3081C34.1943 28.0474 35.1437 28.2679 35.5554 28.3306C37.1638 25.4842 38.0067 22.2694 38.0019 19C38.0019 13.9609 36.0001 9.12821 32.4367 5.56502C28.8734 2.00182 24.0404 2.63364e-05 19.0011 4.05488e-10Z" fill="#6930C3"/>
<path d="M29.575 30.3854C28.7914 29.398 28.3505 28.104 28.2268 26.4293C28.1716 25.685 28.1953 23.6063 28.2181 21.5961C28.2355 20.0847 28.2532 18.5218 28.226 18.0796C28.1791 17.3192 27.6489 16.7672 26.9651 16.7672H26.899C26.2152 16.7672 25.685 17.3192 25.6381 18.0795C25.6108 18.5214 25.6287 19.7906 25.6457 21.0181C25.6687 22.6491 25.6923 24.3359 25.6371 25.0806C25.5133 26.7555 25.0723 28.0495 24.2888 29.0366C23.6932 29.7921 22.9336 30.4024 22.0674 30.8214C21.2013 31.2404 20.2513 31.4571 19.2892 31.4551H19.0382C18.076 31.457 17.1261 31.2403 16.26 30.8213C15.3939 30.4024 14.6343 29.7921 14.0386 29.0366C13.255 28.0492 12.8141 26.7552 12.6903 25.0805C12.6351 24.3361 12.6589 21.6945 12.6819 19.1401C12.6989 17.2257 12.7166 15.2462 12.6895 14.8038C12.6426 14.0436 12.1122 13.4916 11.4284 13.4916H11.3625C10.6786 13.4916 10.1485 14.0436 10.1015 14.8039C10.0742 15.2468 10.092 17.4792 10.1092 19.6381C10.132 22.5164 10.1558 25.4927 10.1006 26.2366C9.96819 28.029 9.51449 29.4247 8.7523 30.3852C7.9757 31.3888 6.94102 32.1627 5.75879 32.624C9.30126 36.0768 14.0543 38.0064 19.0012 38C23.9941 38.0063 28.7876 36.0408 32.3387 32.5311C31.2522 32.0586 30.302 31.3208 29.575 30.3854Z" fill="#6930C3"/>
<path d="M60.4162 25.1274H57.4135V17.8115C57.4135 16.4294 56.8653 15.5952 55.5547 15.5952C54.2201 15.5952 53.2668 16.5962 53.2668 18.5502V25.1274H50.2641V17.8591C50.2641 16.4295 49.6682 15.5952 48.3574 15.5952C47.1896 15.5952 46.1172 16.5963 46.1172 18.5025V25.1274H43.1147V13.3076H46.1174V14.8803C46.4784 14.2954 46.9836 13.8129 47.5844 13.4791C48.1853 13.1454 48.8619 12.9715 49.5492 12.974C51.289 12.974 52.3376 13.7365 52.838 14.9996C53.2376 14.3659 53.7944 13.8463 54.4542 13.4914C55.114 13.1365 55.8544 12.9583 56.6034 12.974C59.0579 12.974 60.4163 14.523 60.4163 16.8583L60.4162 25.1274Z" fill="#6930C3"/>
<path d="M70.7131 25.1272C70.3167 24.5816 70.1152 23.9186 70.1412 23.2447C69.307 24.7221 67.877 25.4608 66.185 25.4608C63.8495 25.4608 62.2053 24.0072 62.2053 21.7671C62.2053 19.3602 64.1832 18.1926 66.4233 17.8588L69.9744 17.3109V16.858C69.9744 15.7143 69.2594 15.0708 67.8057 15.0708C66.4233 15.0708 65.6846 15.6665 65.6846 16.4052C65.6806 16.5028 65.6968 16.6002 65.7324 16.6913L63.0393 17.5966C62.8977 17.282 62.8246 16.9409 62.8247 16.5959C62.8247 14.7609 64.636 12.9737 67.8057 12.9737C71.1183 12.9737 72.977 14.3796 72.977 17.2631V22.1958C72.977 23.5541 73.1916 24.2931 73.7635 25.1271L70.7131 25.1272ZM69.9744 19.5985V19.3841L67.1144 19.8607C65.8275 20.0753 65.1363 20.6472 65.1363 21.6004C65.1363 22.5537 65.8513 23.0303 66.8999 23.0303C68.6397 23.0301 69.9744 21.8864 69.9744 19.5985Z" fill="#6930C3"/>
<path d="M78.6024 25.7946C78.5069 26.054 78.4584 26.3283 78.4594 26.6048C78.4594 27.3912 79.4127 27.9394 81.081 27.9394C82.8683 27.9394 83.9884 27.0099 83.9884 24.6985V23.1734C83.3927 24.1504 82.2964 24.9368 80.6281 24.9368C77.5062 24.9368 74.9324 22.4822 74.9324 18.9553C74.9324 15.4284 77.6017 12.974 80.6521 12.974C82.0818 12.974 83.2734 13.5459 83.9884 14.5944V13.3076H86.9913V24.3172C86.9913 28.3445 84.608 30.3224 81.081 30.3224C77.554 30.3224 75.409 28.7973 75.409 26.2712C75.4028 25.7974 75.5177 25.3299 75.7426 24.9128L78.6024 25.7946ZM77.8399 18.9553C77.8399 21.1238 79.2936 22.3154 80.9619 22.3154C82.6301 22.3154 84.1551 21.1238 84.1551 18.9553C84.1551 16.7868 82.6299 15.5951 80.9619 15.5951C79.2938 15.5951 77.8399 16.7867 77.8399 18.9553V18.9553Z" fill="#6930C3"/>
<path d="M106.901 25.1274H103.898V17.8115C103.898 16.4294 103.35 15.5952 102.039 15.5952C100.705 15.5952 99.7515 16.5962 99.7515 18.5502V25.1274H96.7488V17.8591C96.7488 16.4294 96.153 15.5952 94.8421 15.5952C93.6743 15.5952 92.6019 16.5962 92.6019 18.5025V25.1274H89.5994V13.3076H92.602V14.8803C92.963 14.2954 93.4682 13.8129 94.0691 13.4791C94.6699 13.1454 95.3465 12.9715 96.0339 12.974C97.7736 12.974 98.8222 13.7365 99.3226 14.9996C99.7222 14.3659 100.279 13.8463 100.939 13.4914C101.599 13.1365 102.339 12.9583 103.088 12.974C105.543 12.974 106.901 14.523 106.901 16.8583V25.1274Z" fill="#6930C3"/>
<path d="M116.95 25.1272C116.553 24.5816 116.352 23.9186 116.378 23.2447C115.544 24.7221 114.114 25.4608 112.422 25.4608C110.086 25.4608 108.442 24.0072 108.442 21.7671C108.442 19.3602 110.42 18.1926 112.66 17.8588L116.211 17.3109V16.858C116.211 15.7143 115.496 15.0708 114.042 15.0708C112.66 15.0708 111.921 15.6665 111.921 16.4052C111.917 16.5028 111.933 16.6002 111.969 16.6913L109.276 17.5966C109.134 17.282 109.061 16.9409 109.061 16.5959C109.061 14.7609 110.873 12.9737 114.042 12.9737C117.355 12.9737 119.214 14.3796 119.214 17.2631V22.1958C119.214 23.5541 119.428 24.2931 120 25.1271L116.95 25.1272ZM116.211 19.5985V19.3841L113.351 19.8607C112.064 20.0753 111.373 20.6472 111.373 21.6004C111.373 22.5537 112.088 23.0303 113.137 23.0303C114.876 23.0301 116.211 21.8864 116.211 19.5985Z" fill="#6930C3"/>
</g>
<defs>
<clipPath id="clip0_719_74">
<rect width="120" height="38" fill="white"/>
</clipPath>
</defs>
</svg>
